<?xml version="1.0" standalone="no"?>
<!DOCTYPE svg PUBLIC "-//W3C//DTD SVG 20010904//EN"
 "http://www.w3.org/TR/2001/REC-SVG-20010904/DTD/svg10.dtd">
<svg version="1.0" xmlns="http://www.w3.org/2000/svg"
 width="1250.000000pt" height="680.000000pt" viewBox="0 0 1250.000000 680.000000"
 preserveAspectRatio="xMidYMid meet">

<g transform="translate(0.000000,680.000000) scale(0.100000,-0.100000)"
fill="#000000" stroke="none">
<path d="M5040 6789 c-28 -6 -226 -17 -430 -24 -48 -1 -74 -8 -177 -46 -17 -6
-23 -17 -23 -39 0 -24 5 -31 28 -35 56 -12 57 -15 54 -116 -1 -52 -11 -170
-22 -264 -18 -166 -18 -217 3 -242 12 -16 73 -17 83 -2 3 6 6 46 5 88 -1 42 3
111 9 153 5 43 14 137 20 210 14 173 21 194 68 208 20 6 110 13 200 17 155 6
162 5 162 -13 0 -10 -9 -86 -20 -169 -30 -223 -36 -381 -17 -427 13 -31 21
-38 44 -38 46 0 53 15 53 119 0 179 29 433 56 499 10 24 19 32 38 32 28 0 66
31 66 54 0 7 -6 18 -12 24 -16 12 -143 20 -188 11z"/>
<path d="M5623 6590 c-70 -14 -125 -49 -209 -134 -92 -93 -135 -169 -142 -252
-8 -96 31 -144 116 -144 51 0 161 55 230 115 33 30 52 41 52 31 0 -43 25 -120
47 -146 28 -34 65 -39 101 -14 29 20 28 40 -2 59 -52 35 -59 115 -20 261 41
154 41 152 8 160 -16 4 -40 19 -54 35 -29 32 -67 41 -127 29z m65 -92 c7 -7
12 -33 12 -59 0 -38 -8 -58 -40 -107 -65 -97 -205 -200 -255 -188 -87 22 34
261 175 345 39 23 90 27 108 9z"/>
<path d="M6066 6566 c-20 -19 -25 -38 -31 -102 -15 -176 -57 -376 -124 -585
-36 -113 -38 -130 -11 -154 23 -20 60 -15 76 12 6 10 28 86 49 170 21 84 42
157 46 164 5 9 14 4 31 -15 94 -109 434 65 507 259 31 83 28 136 -10 180 -84
95 -242 55 -401 -103 -38 -36 -68 -62 -68 -57 0 6 7 37 15 70 18 74 19 157 3
173 -19 19 -57 14 -82 -12z m428 -127 c33 -26 33 -58 2 -124 -39 -82 -160
-182 -249 -206 -46 -12 -102 3 -117 32 -18 32 21 101 100 179 89 87 153 126
231 139 4 1 18 -8 33 -20z"/>
<path d="M4225 6538 c-11 -6 -29 -19 -40 -29 -11 -10 -63 -41 -115 -70 -120
-65 -190 -116 -190 -138 0 -13 25 -28 93 -56 50 -21 130 -55 176 -77 64 -29
87 -35 97 -27 35 29 16 48 -111 110 -69 34 -125 63 -125 65 0 6 226 142 246
148 12 4 26 18 33 33 11 23 10 29 -5 40 -21 16 -33 16 -59 1z"/>
<path d="M3729 6429 c-57 -45 -130 -94 -162 -110 -91 -46 -87 -78 14 -104 30
-8 110 -39 178 -70 69 -30 126 -55 127 -55 6 0 34 32 34 40 0 14 -107 76 -191
111 -43 18 -79 35 -79 39 0 3 15 13 33 22 19 9 54 33 79 54 25 22 62 52 82 67
20 15 36 36 36 45 0 21 -18 42 -36 42 -7 0 -58 -36 -115 -81z"/>
<path d="M6863 6478 c-9 -15 -76 -204 -104 -298 -11 -36 -21 -96 -22 -133 -2
-78 8 -91 63 -81 29 5 61 32 175 149 140 143 197 187 218 166 7 -7 6 -54 -3
-157 -16 -175 -10 -197 54 -202 36 -3 42 1 179 136 139 137 181 167 197 142 4
-7 5 -76 3 -154 -5 -121 -3 -147 11 -178 21 -45 67 -69 107 -58 57 17 63 33
24 70 -38 36 -45 74 -43 237 3 145 2 153 -19 174 -31 32 -97 30 -154 -4 -24
-14 -89 -71 -144 -126 -55 -56 -105 -101 -112 -101 -16 0 -16 29 -1 150 12
104 8 140 -22 170 -51 51 -135 13 -273 -123 -56 -56 -112 -110 -124 -121 l-22
-18 8 28 c5 16 25 76 45 132 37 107 45 172 24 190 -24 18 -56 23 -65 10z"/>
<path d="M2520 6456 c-77 -22 -193 -66 -227 -87 -52 -32 -140 -134 -172 -201
-58 -118 -77 -265 -50 -373 21 -82 126 -173 220 -190 44 -8 189 33 259 72 111
64 274 257 331 392 40 95 45 138 24 202 -48 144 -226 229 -385 185z m138 -81
c88 -27 132 -76 153 -175 9 -42 8 -58 -6 -93 -51 -129 -224 -323 -340 -382
-166 -83 -305 -11 -305 160 0 102 47 238 114 328 46 63 240 177 301 177 17 0
54 -7 83 -15z"/>
<path d="M8043 6222 c-7 -4 -28 -50 -47 -102 -18 -52 -57 -152 -85 -222 -56
-138 -57 -159 -6 -172 41 -10 60 8 79 76 26 94 38 108 91 108 49 0 225 -36
238 -49 4 -4 0 -39 -9 -77 -17 -76 -14 -148 8 -171 18 -17 75 -20 90 -5 8 8 7
22 -6 51 -33 72 4 194 104 340 55 82 51 121 -12 121 -35 0 -56 -23 -98 -109
-30 -63 -36 -69 -59 -66 -138 23 -262 49 -267 56 -4 8 13 55 60 161 14 33 14
38 0 52 -16 17 -61 21 -81 8z"/>
<path d="M1445 6116 c-86 -33 -184 -84 -226 -117 -55 -43 -125 -153 -155 -244
-21 -62 -27 -100 -28 -170 -1 -164 43 -249 159 -306 87 -43 134 -42 249 7 73
31 103 51 163 108 135 127 250 336 261 472 4 51 0 71 -17 107 -68 140 -249
203 -406 143z m215 -89 c61 -30 102 -98 108 -175 3 -51 -1 -67 -38 -142 -100
-205 -261 -360 -391 -377 -81 -11 -159 41 -188 126 -39 116 18 335 113 440 40
43 185 144 222 154 36 11 129 -4 174 -26z"/>
<path d="M8840 5967 c-174 -49 -304 -190 -302 -327 1 -82 57 -137 171 -166
101 -25 249 3 304 58 40 40 25 57 -36 40 -81 -24 -162 -35 -207 -28 -87 13
-141 66 -121 119 8 22 21 26 122 41 146 23 234 55 277 100 53 59 41 116 -34
155 -35 17 -125 22 -174 8z m136 -78 c26 -43 -77 -94 -251 -124 l-40 -7 40 42
c22 23 56 51 75 63 62 38 159 53 176 26z"/>
<path d="M9325 5807 c-15 -12 -43 -62 -65 -115 -49 -119 -139 -276 -242 -422
-44 -63 -89 -129 -100 -146 -19 -32 -19 -32 5 -60 31 -36 68 -28 101 24 13 20
58 91 101 157 75 115 79 119 86 91 12 -43 37 -65 98 -82 70 -21 164 -13 269
22 174 57 289 185 261 288 -17 63 -101 116 -185 116 -55 0 -184 -39 -260 -79
l-75 -39 22 37 c81 135 99 200 60 221 -29 15 -47 12 -76 -13z m379 -233 c9 -8
16 -31 16 -50 0 -70 -111 -154 -251 -190 -142 -36 -245 30 -175 113 28 33 135
93 219 123 67 24 170 26 191 4z"/>
<path d="M467 5691 c-87 -29 -238 -123 -290 -181 -58 -64 -91 -131 -118 -240
-37 -145 -10 -312 63 -395 37 -43 125 -85 192 -92 46 -4 60 0 146 43 110 55
175 114 245 223 137 212 182 427 110 531 -71 103 -224 152 -348 111z m195
-106 c46 -30 89 -102 95 -158 12 -108 -132 -385 -250 -481 -133 -107 -265
-101 -325 16 -62 121 -28 355 69 477 47 59 159 150 209 168 52 20 156 8 202
-22z"/>
<path d="M10027 5445 c-4 -9 18 -62 51 -125 43 -84 54 -112 45 -121 -7 -7 -62
-14 -138 -18 -133 -6 -145 -11 -145 -58 0 -33 36 -38 139 -19 49 9 117 16 152
17 94 1 114 9 112 43 -1 16 -10 40 -20 54 -10 14 -43 73 -73 131 -51 97 -58
106 -86 109 -21 2 -33 -2 -37 -13z"/>
<path d="M10388 5278 c-16 -5 -28 -14 -28 -20 0 -6 27 -62 61 -124 l60 -114
-103 0 c-110 0 -215 -13 -231 -29 -14 -14 0 -59 22 -66 10 -3 40 -1 66 5 26 6
119 11 206 12 188 2 198 6 145 66 -47 51 -101 143 -121 202 -21 62 -41 80 -77
68z"/>
<path d="M2200 5022 c-20 -10 -44 -34 -57 -57 l-22 -40 -379 -5 -379 -5 -41
-28 c-64 -42 -99 -98 -137 -223 l-35 -112 -129 -4 c-122 -3 -129 -4 -164 -31
-62 -47 -54 -24 -202 -602 -47 -187 -104 -409 -126 -493 l-40 -153 3 -265 c2
-214 0 -264 -10 -264 -8 0 -27 -13 -43 -29 l-29 -30 2 -863 3 -863 25 -45 c28
-49 73 -84 129 -100 23 -6 555 -10 1514 -10 l1477 0 1 383 c0 416 1 435 29
551 50 204 150 308 323 336 46 7 251 -4 465 -26 l62 -6 0 -54 c0 -38 -4 -54
-13 -54 -7 0 -85 7 -172 16 -87 8 -212 14 -276 12 -100 -3 -122 -6 -146 -24
-38 -28 -87 -102 -113 -172 -46 -122 -50 -163 -50 -610 0 -272 -4 -430 -10
-443 -10 -17 -23 -19 -150 -19 -77 0 -140 -3 -140 -6 0 -15 47 -114 72 -151
48 -71 57 -73 313 -73 256 0 265 2 313 73 85 126 124 314 124 592 0 278 -39
466 -124 592 -41 61 -70 73 -180 74 -87 1 -91 2 -63 14 160 73 361 16 447
-125 49 -82 52 -106 55 -470 3 -298 5 -345 18 -344 8 0 33 1 55 2 35 2 40 5
40 26 0 14 3 27 8 29 4 3 88 -2 187 -9 99 -8 263 -20 363 -27 198 -15 201 -16
202 -72 1 -100 59 -265 110 -317 l38 -38 149 0 c136 0 153 2 176 20 40 32 86
135 108 245 11 55 22 101 24 103 2 3 125 -6 554 -39 73 -5 136 -7 139 -4 4 3
-1 20 -11 38 -9 18 -19 44 -23 59 -3 16 -10 28 -15 28 -5 0 -9 11 -9 24 0 13
-7 29 -15 36 -8 6 -109 24 -225 38 l-211 27 -2 108 -2 107 78 -6 77 -7 0 75
c0 41 3 157 7 256 5 160 4 182 -9 182 -12 0 -17 -14 -20 -56 -3 -31 -10 -59
-16 -63 -6 -3 -13 -18 -17 -33 -8 -33 -74 -101 -118 -123 -17 -8 -49 -18 -71
-20 -23 -3 -34 -3 -26 1 136 52 188 99 224 204 19 53 22 264 5 324 -8 28 -7
46 1 66 9 22 9 50 1 117 -6 48 -15 122 -19 163 -6 66 -9 75 -27 75 -16 0 -22
-10 -30 -52 -14 -72 -22 -74 -30 -6 -4 32 -8 64 -11 72 -8 24 -32 -7 -39 -52
-4 -23 -12 -51 -19 -62 -9 -17 -12 -8 -16 54 -3 47 -10 76 -17 79 -9 2 -13 -7
-13 -28 0 -26 -3 -31 -17 -26 -9 4 -20 1 -25 -6 -5 -8 -8 1 -8 23 0 25 -5 39
-16 43 -25 9 -27 3 -28 -74 0 -38 -4 -70 -8 -70 -4 0 -8 26 -8 58 0 57 -1 58
-33 70 -39 14 -48 15 -46 5 3 -15 -14 -74 -22 -79 -5 -3 -9 -14 -9 -24 0 -18
-17 -36 -26 -28 -2 3 12 45 32 94 20 49 101 251 181 448 79 198 149 368 155
379 6 11 6 17 0 13 -5 -3 -20 22 -33 57 -13 34 -25 65 -27 70 -2 4 3 7 11 7 9
0 16 15 20 45 4 24 12 53 19 64 7 11 9 23 6 27 -10 10 -28 -5 -28 -24 0 -9 -7
-26 -15 -36 -23 -31 -19 1 11 80 31 84 115 341 144 444 50 176 52 185 46 239
-9 78 -38 122 -110 168 -102 66 -196 90 -247 63 -31 -17 -41 -40 -118 -285
-18 -55 -36 -109 -41 -120 -4 -11 -22 -65 -40 -120 -26 -82 -39 -108 -75 -145
-55 -58 -63 -74 -69 -146 -3 -33 -28 -138 -57 -234 -28 -96 -56 -196 -63 -222
-6 -25 -14 -50 -19 -54 -4 -4 -7 -15 -7 -25 0 -10 -6 -38 -14 -61 -8 -24 -37
-123 -66 -222 -41 -142 -50 -183 -42 -201 13 -28 14 -23 -83 -365 -26 -91 -53
-189 -61 -219 -10 -42 -24 -66 -63 -105 -27 -28 -56 -67 -64 -86 l-15 -35 -1
31 c-1 23 10 44 40 78 22 25 47 46 55 46 23 0 16 18 -8 22 -23 3 -23 5 -26
173 -1 93 0 175 2 181 3 9 22 7 73 -6 l68 -18 3 29 c2 16 7 29 11 29 5 0 12
26 16 57 4 32 16 70 26 84 11 16 16 34 13 44 -4 10 -1 21 7 25 27 18 -30 58
-127 90 l-94 32 0 544 c0 299 2 544 5 544 2 0 105 -54 229 -120 124 -66 228
-120 231 -120 3 0 5 29 5 65 0 37 4 65 10 65 6 0 10 11 10 25 0 14 7 28 15 31
8 4 15 12 15 19 0 6 9 20 20 30 11 10 20 22 20 26 0 4 -126 88 -280 186 l-280
177 0 268 c0 148 2 268 5 268 2 0 158 -117 346 -259 190 -143 348 -257 356
-254 7 3 13 14 13 25 0 11 6 32 14 46 19 36 29 63 30 84 0 11 -153 136 -439
358 l-440 340 -1305 0 c-1223 0 -1307 -1 -1340 -18z m2063 -222 l367 0 0
-1345 0 -1345 -95 0 -94 0 -4 948 c-4 1001 -4 1009 -52 1219 -39 170 -117 348
-165 376 -15 9 -101 44 -191 78 -90 33 -168 66 -174 71 -7 7 -2 9 15 4 14 -3
190 -6 393 -6z m-458 -490 c182 -50 341 -96 355 -103 49 -25 50 -34 50 -472 0
-389 -1 -412 -20 -442 -13 -22 -29 -34 -54 -38 -31 -6 -177 16 -526 80 -41 8
-119 21 -173 31 -92 16 -98 18 -93 38 3 11 6 27 6 34 0 6 6 12 13 12 8 0 13
16 14 43 1 38 56 540 68 627 6 40 28 60 64 60 44 -1 302 -77 320 -94 14 -15
16 -58 19 -370 l3 -353 119 -23 c65 -12 129 -20 142 -18 l23 3 3 410 2 410
-342 96 -343 95 -3 37 c-2 27 0 36 10 32 7 -2 162 -45 343 -95z m-670 -100
c33 -13 59 -72 52 -120 -3 -19 -19 -138 -36 -265 -17 -126 -36 -246 -41 -266
-6 -23 -29 -54 -60 -83 l-49 -46 -1108 0 c-863 0 -1114 3 -1133 13 -14 7 -34
30 -44 51 l-19 39 72 292 c40 160 81 306 92 323 10 18 33 41 51 52 32 20 53
20 1115 20 692 0 1091 -4 1108 -10z m2795 -830 c-9 -6 -9 -12 0 -26 11 -18 -8
-74 -90 -259 -31 -71 -334 -794 -343 -818 -4 -10 -11 -16 -15 -13 -5 3 -9 -7
-9 -22 0 -15 -10 -47 -21 -71 -12 -25 -21 -46 -19 -47 1 -1 28 -5 59 -9 51 -6
59 -5 64 11 11 30 43 106 60 139 l14 30 -5 -39 c-4 -21 -12 -47 -18 -57 -14
-22 -11 -25 30 -33 28 -7 35 -3 69 38 21 25 43 46 50 46 14 0 36 -48 25 -55
-5 -2 -11 5 -15 18 -5 21 -9 19 -58 -29 -29 -28 -107 -84 -173 -124 -66 -40
-142 -87 -170 -105 -59 -38 -124 -76 -185 -108 -66 -35 -65 -56 11 -180 34
-56 80 -132 103 -169 l41 -68 121 0 121 0 59 38 c101 66 193 184 194 250 0 33
17 18 24 -23 11 -58 -43 -140 -144 -217 l-35 -27 83 -1 c48 0 82 -4 82 -10 0
-13 -167 -13 -175 0 -10 16 -34 12 -58 -11 -21 -20 -29 -21 -143 -15 -136 6
-151 10 -159 37 -5 14 -12 18 -26 14 -14 -5 -19 -2 -19 11 0 9 -18 41 -39 69
-31 41 -48 54 -76 59 -57 11 -92 -27 -36 -39 37 -8 45 -18 61 -78 10 -38 16
-47 29 -41 37 15 54 17 47 6 -5 -8 0 -12 13 -12 21 0 21 -5 21 -211 l0 -212
-37 6 c-44 7 -128 16 -496 57 -148 17 -273 30 -278 30 -5 0 -9 94 -9 218 l0
218 313 -42 c171 -23 329 -43 350 -46 35 -4 48 4 27 17 -5 3 -10 19 -10 34 0
35 -17 41 -112 41 -64 0 -68 1 -68 23 0 13 -11 38 -25 57 -13 18 -22 37 -20
41 3 4 1 10 -5 14 -5 3 -10 25 -9 48 l1 42 17 -55 c10 -30 28 -76 41 -102 18
-39 27 -48 48 -48 28 0 62 25 62 47 0 17 81 18 98 1 6 -6 15 -9 18 -5 7 6 -4
31 -52 116 -14 24 -23 50 -20 56 2 7 -1 18 -7 24 -14 14 97 136 133 146 61 16
79 53 61 123 -11 39 -14 42 -47 42 -28 0 -47 -9 -81 -40 -44 -38 -63 -48 -63
-32 0 4 9 36 19 72 10 36 36 129 57 207 21 79 42 143 47 143 10 0 9 -38 -2
-44 -4 -3 -11 -29 -15 -58 -4 -29 -12 -59 -18 -66 -13 -15 4 -32 35 -32 12 0
17 8 17 30 0 17 4 30 9 30 5 0 12 27 16 60 4 33 11 62 15 65 4 3 11 28 15 55
4 28 12 50 18 51 7 0 3 4 -8 9 -14 5 -26 2 -42 -13 -31 -28 -31 -1 0 32 15 17
43 87 76 191 29 91 56 174 61 185 5 11 18 52 30 90 12 39 25 78 31 87 5 10 9
25 9 33 0 9 5 13 11 10 6 -4 7 -14 4 -24 -4 -9 -17 -56 -30 -106 -13 -49 -31
-117 -40 -150 -9 -33 -23 -85 -30 -115 -8 -30 -21 -82 -30 -115 -9 -33 -22
-85 -30 -115 -7 -30 -27 -109 -45 -175 -42 -160 -51 -197 -48 -199 2 -1 23
-10 48 -20 25 -10 53 -22 62 -27 34 -17 45 -8 73 59 16 37 41 94 56 127 15 33
55 125 89 205 34 80 65 154 70 165 22 48 110 265 110 270 0 3 9 24 19 48 11
23 36 85 56 137 20 52 40 104 45 115 5 11 18 43 28 70 35 94 34 93 40 71 2
-10 -1 -22 -8 -26z m-684 -898 c-11 -10 -15 4 -8 28 l7 25 3 -23 c2 -13 1 -26
-2 -30z m-1508 -107 c301 -30 564 -57 585 -61 l37 -6 0 -54 0 -54 -42 5 c-24
3 -133 14 -243 25 -110 11 -338 34 -507 50 -260 26 -339 31 -522 28 l-215 -3
-41 -40 c-52 -50 -77 -96 -180 -323 -91 -200 -120 -239 -204 -278 l-51 -24
-711 0 c-795 0 -782 -1 -855 68 -31 30 -64 92 -169 317 -102 221 -133 281
-150 283 -17 3 -20 11 -20 58 l0 55 57 -3 57 -3 137 -300 c75 -165 148 -312
162 -326 14 -14 40 -29 57 -33 18 -3 341 -6 719 -6 l687 0 44 23 c50 24 53 30
204 347 41 85 91 174 111 198 116 134 227 140 1053 57z m2122 -47 c0 -19 -2
-20 -10 -8 -13 19 -13 30 0 30 6 0 10 -10 10 -22z m-63 -95 c-3 -10 -5 -2 -5
17 0 19 2 27 5 18 2 -10 2 -26 0 -35z m-3313 -15 c-29 -51 29 -48 -843 -48
-443 0 -811 4 -817 8 -6 4 -16 17 -23 30 l-12 22 851 0 c678 0 850 -3 844 -12z
m3341 -80 c7 -35 22 -98 34 -140 22 -81 28 -198 11 -198 -5 0 -10 -7 -10 -15
0 -8 5 -15 10 -15 6 0 10 -13 10 -29 0 -17 -4 -33 -10 -36 -6 -4 -10 8 -10 29
0 20 -5 36 -10 36 -6 0 -8 11 -4 26 8 32 -11 167 -41 289 -12 50 -18 92 -14
93 5 2 9 11 9 20 0 32 14 0 25 -60z m-3425 -148 c0 -6 -11 -22 -25 -35 l-24
-25 -711 0 -711 0 -24 25 c-14 13 -25 29 -25 35 0 7 238 10 760 10 522 0 760
-3 760 -10z m2700 -194 c0 -8 -7 -16 -15 -20 -17 -6 -18 -4 -9 18 8 20 24 21
24 2z m0 -95 c0 -28 -4 -53 -10 -56 -6 -4 -10 15 -10 49 0 31 5 56 10 56 6 0
10 -22 10 -49z m-4422 -159 c9 -6 82 -232 82 -256 0 -2 -7 -12 -16 -20 -12
-13 -40 -16 -138 -16 -81 0 -126 4 -134 12 -13 13 -18 269 -5 281 9 10 195 8
211 -1z m2276 -5 c15 -11 17 -30 17 -131 0 -96 -3 -122 -16 -135 -24 -24 -445
-30 -481 -6 -31 20 -30 32 12 145 39 103 48 118 79 130 35 15 369 12 389 -3z
m-753 -117 c34 -19 25 -77 -32 -194 -37 -78 -56 -107 -72 -111 -12 -3 -245 -4
-518 -3 -470 3 -498 4 -518 22 -30 27 -121 210 -121 243 0 16 5 34 12 41 16
16 1219 17 1249 2z m1756 -39 c39 -58 48 -107 48 -261 -1 -126 -4 -152 -23
-201 -30 -74 -53 -96 -88 -81 -100 46 -113 458 -18 564 25 26 54 19 81 -21z
m1652 -180 c32 -32 46 -98 46 -221 0 -103 -3 -120 -25 -165 -42 -84 -86 -69
-115 40 -28 110 -15 273 29 339 20 31 39 33 65 7z"/>
<path d="M5345 2088 c-7 -24 -12 -118 -6 -118 17 0 52 35 67 67 17 34 17 36
-1 49 -23 17 -54 18 -60 2z"/>
<path d="M5185 1890 c-16 -16 -26 -30 -22 -30 14 0 87 43 87 51 0 20 -38 7
-65 -21z"/>
<path d="M5200 1595 c7 -9 15 -13 17 -11 7 7 -7 26 -19 26 -6 0 -6 -6 2 -15z"/>
<path d="M5795 1599 c-11 -16 -1 -19 13 -3 7 8 8 14 3 14 -5 0 -13 -5 -16 -11z"/>
<path d="M6140 4357 c0 -6 28 -66 51 -109 12 -23 12 -160 0 -190 -5 -13 -16
-48 -25 -78 -8 -30 -25 -89 -36 -130 -12 -41 -24 -82 -26 -91 -3 -10 42 -78
114 -170 209 -273 216 -292 22 -59 -74 88 -137 160 -140 160 -4 0 -33 -67 -64
-149 l-57 -150 46 -153 c75 -246 72 -234 120 -413 37 -133 47 -172 52 -195 9
-40 23 -50 72 -50 25 0 83 -3 129 -7 l82 -6 0 -113 c0 -63 3 -114 8 -114 4 1
88 43 187 94 l180 94 9 64 c9 63 8 64 -32 130 -44 72 -135 209 -208 316 -35
51 -38 59 -14 32 43 -47 156 -200 205 -277 22 -35 43 -63 48 -63 17 0 4 45
-49 158 -13 29 -24 55 -24 58 0 3 -12 31 -26 62 -32 70 -166 374 -187 424 -12
28 -22 37 -43 40 -30 3 -21 -16 -190 393 -74 178 -75 181 -69 246 9 85 -12
134 -84 204 -28 27 -51 46 -51 42z m133 -480 c14 -28 45 -97 70 -152 25 -55
62 -136 83 -180 26 -55 37 -94 37 -123 0 -65 -14 -69 -53 -15 -19 27 -79 108
-133 182 l-99 134 18 78 c19 78 34 102 34 55 0 -14 -4 -28 -10 -31 -5 -3 -10
-19 -10 -35 0 -24 11 -38 67 -80 36 -27 68 -49 70 -47 2 2 -3 17 -12 33 -8 16
-15 36 -15 45 0 9 -7 22 -15 29 -8 7 -15 17 -15 23 0 15 -40 96 -51 103 -5 3
-9 14 -9 25 0 31 16 14 43 -44z"/>
<path d="M7925 4271 c-77 -31 -143 -41 -435 -66 -413 -35 -469 -56 -514 -188
-12 -36 -13 -53 -4 -77 12 -37 15 -36 100 23 51 36 78 47 133 56 105 18 221
39 310 55 307 57 264 54 420 37 61 -6 139 -16 175 -22 36 -5 106 -14 155 -19
146 -16 340 -38 485 -55 74 -9 191 -22 260 -30 69 -7 139 -17 157 -20 37 -8
50 8 60 80 8 60 -9 78 -101 105 -39 12 -82 25 -96 30 -62 22 -375 61 -755 94
-88 8 -187 17 -220 20 -51 5 -71 1 -130 -23z"/>
<path d="M7739 4065 c-4 -3 -49 -13 -100 -20 -52 -8 -132 -22 -179 -30 -47 -9
-127 -22 -179 -30 -51 -7 -97 -17 -102 -22 -5 -5 -4 -55 2 -119 16 -157 -3
-591 -26 -587 -5 1 -13 -8 -18 -19 -15 -41 -16 -10 -5 108 12 131 17 578 6
589 -13 13 -126 -85 -131 -113 -4 -15 -11 -99 -17 -187 -13 -195 -20 -251 -28
-238 -4 5 -119 97 -257 203 -137 106 -269 209 -293 228 l-43 34 7 -27 c4 -16
20 -53 35 -84 16 -31 29 -64 29 -73 0 -9 4 -19 9 -22 5 -3 12 -22 15 -41 4
-19 11 -35 15 -35 5 0 11 -8 13 -18 4 -15 437 -352 452 -352 3 0 3 33 0 73 -5
58 -4 75 9 85 17 14 17 21 -3 -228 -6 -69 -15 -188 -21 -265 -5 -77 -13 -180
-18 -230 -5 -49 -8 -92 -6 -95 2 -3 35 -2 73 4 l69 9 11 71 c7 39 14 85 15
101 3 19 5 12 6 -17 0 -28 6 -48 12 -48 8 0 10 -18 7 -54 l-4 -53 66 -12 c165
-30 276 -125 375 -322 50 -99 50 -99 201 -99 74 0 82 2 105 26 l24 26 181 -7
181 -7 7 123 c4 68 11 158 17 200 9 70 8 79 -16 133 -33 75 -34 163 -2 226 50
101 162 143 382 144 123 1 163 -4 330 -40 59 -13 322 -113 377 -144 10 -6 25
-10 34 -10 14 0 16 9 10 73 -9 105 -43 326 -77 507 -11 58 -26 139 -34 180 -7
41 -16 82 -20 91 -5 14 4 18 55 24 47 5 65 4 76 -7 8 -7 20 -58 28 -113 8 -55
22 -149 31 -209 8 -60 18 -119 21 -130 2 -12 9 -59 14 -106 5 -47 18 -134 29
-195 11 -60 23 -138 27 -173 l7 -64 -49 25 c-27 14 -121 55 -209 92 -88 36
-174 73 -192 81 -17 8 -38 14 -47 14 -8 0 -25 4 -38 9 -123 49 -408 62 -568
27 -47 -11 -91 -23 -97 -29 -14 -10 -7 -31 7 -22 11 7 144 -47 261 -105 45
-22 85 -40 90 -40 5 0 9 32 9 70 0 89 14 105 97 115 97 11 116 -2 214 -146
199 -294 286 -423 376 -556 78 -117 100 -143 120 -143 25 0 25 -2 2 90 -4 19
-11 67 -15 107 -6 60 -4 77 11 99 l17 27 172 -7 c94 -3 209 -9 256 -12 l85 -5
-30 26 c-62 54 -257 177 -388 244 -28 14 -54 33 -58 41 -9 19 -39 216 -39 259
0 27 3 31 28 31 16 0 37 7 48 15 18 13 16 14 -17 8 -29 -4 -40 -1 -58 18 -29
32 -28 89 2 117 26 24 47 27 80 11 20 -9 19 -8 -3 11 -24 21 -43 22 -96 5 -19
-6 -21 -1 -33 82 -7 48 -16 113 -21 143 -5 30 -17 103 -26 162 l-16 107 28 40
c43 59 142 112 163 87 6 -7 11 -52 13 -102 l3 -89 28 -3 c51 -6 57 9 57 134 0
89 -3 116 -16 128 -8 9 -20 16 -25 16 -19 0 -49 -21 -49 -34 0 -15 -32 -32
-78 -41 -21 -4 -52 -25 -80 -53 -26 -25 -51 -44 -57 -42 -5 2 -44 6 -85 9
l-75 6 -7 45 c-4 25 -13 74 -20 110 l-13 64 -72 12 c-97 17 -343 44 -663 73
-63 6 -137 13 -165 15 -27 3 -140 12 -250 20 -110 8 -220 18 -245 21 -25 4
-48 4 -51 0z m261 -50 c241 -25 432 -44 485 -50 28 -4 129 -15 225 -26 96 -10
200 -23 230 -29 30 -5 87 -12 127 -15 53 -5 73 -11 79 -23 7 -17 19 -78 50
-242 9 -47 19 -103 24 -125 41 -213 98 -625 85 -625 -4 0 -36 14 -72 30 -35
17 -67 30 -70 30 -3 0 -19 6 -36 14 -40 18 -111 39 -202 61 -38 9 -86 21 -105
26 -66 17 -185 32 -298 36 -142 6 -225 -13 -276 -63 -83 -80 -96 -151 -96
-510 l0 -284 -125 0 -125 0 7 143 c13 236 10 1070 -4 1167 -7 47 -17 126 -23
175 -6 50 -17 140 -25 200 -17 129 -17 125 -7 125 4 -1 72 -7 152 -15z m-315
-37 c3 -18 10 -53 15 -78 48 -231 84 -687 78 -986 l-3 -142 -283 219 c-155
121 -284 219 -286 219 -3 0 -2 -34 1 -75 4 -52 2 -79 -6 -89 -7 -8 -10 -19 -7
-24 3 -5 127 -101 276 -213 l270 -204 0 -102 0 -102 -162 103 c-90 56 -220
139 -290 184 l-128 81 0 -58 c0 -51 3 -61 30 -86 32 -30 34 -40 6 -29 -28 11
-59 82 -53 123 33 237 65 630 78 946 6 149 13 273 17 276 7 7 48 14 260 44 51
7 96 16 99 19 4 3 23 6 44 6 34 0 38 -3 44 -32z m-528 -810 c-16 -177 -39
-389 -46 -438 l-9 -55 -1 62 c-1 38 -6 63 -13 65 -10 4 -10 24 0 94 6 49 15
135 18 192 4 56 11 102 15 102 5 0 9 -12 9 -27 0 -14 3 -23 7 -19 4 4 6 25 4
46 -2 26 2 40 10 40 8 0 10 -17 6 -62z m123 -588 c0 -5 -9 -10 -19 -10 -11 0
-23 5 -26 10 -4 6 5 10 19 10 14 0 26 -4 26 -10z m487 -167 c-3 -93 -9 -176
-12 -186 -7 -15 -18 -17 -93 -15 l-85 3 -12 40 c-18 62 -86 185 -121 220 -17
18 -60 47 -95 64 -61 31 -62 32 -24 26 22 -4 47 -13 56 -21 8 -8 18 -14 22
-14 3 0 31 -25 61 -55 36 -35 92 -74 159 -110 57 -30 107 -55 110 -55 4 0 7
11 7 23 0 13 3 27 7 31 4 3 6 49 4 101 -2 88 1 115 16 115 3 0 3 -75 0 -167z"/>
<path d="M6144 4013 c-3 -10 -10 -26 -15 -35 -12 -22 -12 -58 0 -58 5 0 12 17
16 38 4 20 11 42 16 49 7 7 6 14 -1 18 -5 3 -13 -2 -16 -12z"/>
<path d="M6100 3886 c-10 -20 -11 -29 -2 -38 8 -8 13 -4 17 15 10 39 1 52 -15
23z"/>
<path d="M6780 3001 c0 -5 7 -14 15 -21 8 -7 15 -20 15 -29 0 -9 9 -33 20 -54
11 -20 20 -46 20 -57 0 -11 4 -20 9 -20 5 0 12 -13 16 -30 9 -40 25 -38 25 3
0 18 4 37 9 43 4 5 6 28 4 51 -5 39 -9 45 -69 82 -35 22 -64 36 -64 32z"/>
<path d="M8731 2857 c-8 -20 -7 -58 5 -145 17 -120 23 -419 14 -608 -4 -90 -3
-104 14 -123 22 -24 49 -27 68 -7 36 36 49 503 19 660 -19 99 -52 187 -82 220
l-28 31 -10 -28z"/>
<path d="M8820 2860 c0 -10 4 -29 9 -42 5 -13 20 -57 33 -98 12 -41 44 -109
70 -150 45 -72 67 -108 244 -390 42 -69 79 -127 81 -129 2 -3 13 5 26 17 16
15 36 22 65 22 23 0 42 3 42 6 0 6 -441 650 -502 732 -40 53 -68 67 -68 32z"/>
<path d="M8286 2806 c-22 -21 -26 -34 -26 -82 0 -33 6 -67 16 -82 13 -22 312
-249 417 -316 l30 -20 -6 155 c-3 85 -9 167 -13 183 -7 29 -3 27 -184 108 -25
11 -67 31 -94 44 -79 38 -110 40 -140 10z"/>
<path d="M9701 2791 c-15 -27 -14 -124 2 -143 15 -19 113 -78 120 -72 7 8 -30
129 -55 181 -27 53 -51 65 -67 34z"/>
<path d="M9788 2804 c-3 -5 21 -67 53 -139 55 -124 61 -134 137 -205 62 -59
88 -92 120 -155 31 -63 48 -84 77 -99 44 -24 59 -49 51 -87 -4 -22 0 -35 14
-49 19 -19 23 -19 49 -6 26 14 41 34 41 56 0 4 -44 70 -98 146 -140 199 -374
529 -376 531 -7 8 -64 14 -68 7z"/>
<path d="M8300 2344 l0 -216 98 8 c53 4 133 6 177 4 44 -1 94 -3 110 -4 29 -1
30 1 33 46 2 26 -1 54 -5 62 -9 16 -394 316 -405 316 -5 0 -8 -97 -8 -216z"/>
<path d="M6188 2533 c-17 -4 -18 -30 -18 -356 0 -194 -3 -511 -7 -705 l-6
-354 34 4 34 3 3 708 c2 563 0 707 -10 706 -7 -1 -21 -3 -30 -6z"/>
<path d="M6262 1833 l3 -708 58 -3 c31 -2 57 1 57 6 0 5 -7 53 -15 108 -16
109 -20 335 -5 297 13 -32 20 -29 20 8 0 17 -4 28 -10 24 -12 -7 -12 29 0 65
l8 25 1 -27 c1 -34 21 -37 21 -4 0 14 -4 28 -10 31 -13 8 -13 47 -1 77 5 13
19 54 30 92 19 64 21 95 21 393 l0 323 -90 0 -90 0 2 -707z"/>
<path d="M6965 2509 c-75 -8 -145 -40 -355 -157 -145 -81 -150 -86 -150 -135
l0 -39 33 22 c144 96 379 146 511 108 115 -33 271 -191 387 -393 66 -116 81
-147 68 -143 -8 2 -23 22 -34 43 -25 47 -52 62 -33 18 6 -15 16 -34 22 -41 5
-7 12 -29 15 -49 7 -43 25 -53 36 -21 5 16 10 -5 15 -67 8 -93 20 -152 46
-218 7 -20 14 -45 14 -54 0 -29 -27 17 -35 60 -4 20 -12 37 -17 37 -11 0 -1
-60 13 -75 5 -5 9 -21 9 -35 0 -14 5 -31 12 -38 14 -14 1 -20 -51 -24 -19 -2
-37 -10 -41 -18 -4 -8 -12 -25 -19 -37 -9 -18 -8 -28 1 -43 12 -19 22 -20 148
-18 l135 2 -130 6 -130 5 -3 29 c-2 16 1 33 7 39 8 8 11 2 11 -21 l0 -32 165
-2 c91 -1 182 -2 203 -2 l37 -1 3 52 3 52 -43 3 c-36 2 -44 7 -46 26 -8 56 67
339 118 445 26 53 25 67 -2 68 -13 0 -17 3 -10 6 18 7 15 33 -5 33 -14 0 -15
11 -10 96 6 89 5 95 -11 88 -9 -5 -72 -10 -139 -12 l-122 -3 6 -47 c9 -73 16
-80 83 -88 50 -5 60 -10 60 -25 0 -16 8 -19 49 -19 28 0 53 -4 56 -10 8 -13
-105 -13 -160 0 -22 5 -43 6 -46 2 -4 -4 6 -34 22 -67 35 -73 36 -91 6 -62
-13 12 -40 69 -61 127 -120 331 -246 541 -358 598 -24 13 -73 27 -108 32 -72
11 -77 11 -175 -1z m870 -599 c-3 -5 -22 -10 -41 -10 -19 0 -34 5 -34 10 0 6
18 10 41 10 24 0 38 -4 34 -10z m-270 -600 c7 -33 6 -34 -9 -15 -8 11 -16 31
-16 45 0 33 16 14 25 -30z"/>
<path d="M8904 2504 c17 -42 18 -268 2 -373 -15 -99 -15 -105 3 -135 10 -17
40 -71 66 -121 120 -227 137 -255 157 -255 4 0 8 68 8 150 l0 150 40 44 c22
24 40 46 40 50 0 15 -137 248 -217 368 -79 121 -117 167 -99 122z"/>
<path d="M9531 2336 c-11 -12 -11 -22 -2 -43 6 -16 19 -71 29 -123 l19 -95
138 -3 c76 -1 142 1 147 6 5 5 12 42 17 82 11 110 47 131 152 90 28 -12 55
-19 60 -18 13 5 -22 68 -45 80 -12 7 -75 15 -141 19 -367 23 -359 23 -374 5z"/>
<path d="M6111 2248 c4 -29 8 -88 8 -130 1 -62 4 -78 16 -78 13 0 15 21 15
125 0 69 -4 125 -9 125 -5 0 -16 2 -23 5 -12 5 -13 -4 -7 -47z"/>
<path d="M9990 2205 c0 -3 18 -16 40 -30 30 -19 53 -25 97 -25 68 0 62 11 -21
40 -55 18 -116 27 -116 15z"/>
<path d="M9945 2170 c-14 -44 16 -105 55 -110 33 -5 40 1 40 34 0 28 -7 40
-39 65 -46 37 -48 37 -56 11z"/>
<path d="M10380 2158 c-11 -18 -20 -45 -20 -60 0 -14 -3 -33 -6 -42 -5 -14 4
-16 60 -16 64 0 66 1 91 37 14 21 25 41 25 45 0 15 -83 68 -107 68 -16 0 -30
-11 -43 -32z"/>
<path d="M10530 2173 c0 -3 8 -15 17 -25 15 -17 15 -23 4 -51 -27 -67 -27 -67
18 -67 39 0 41 1 41 31 0 17 4 38 9 48 11 20 5 31 -29 54 -24 17 -60 23 -60
10z"/>
<path d="M6478 2163 c-16 -4 -18 -18 -18 -108 0 -69 4 -105 12 -107 6 -2 38
23 70 56 48 49 61 58 68 46 7 -11 -2 -26 -36 -60 -48 -47 -92 -106 -112 -152
-19 -44 1 -32 26 15 31 58 104 140 157 177 52 36 58 37 51 8 -3 -13 -3 -17 0
-10 7 15 120 17 129 2 3 -5 10 -10 16 -10 5 0 9 5 9 10 0 6 -7 10 -15 10 -8 0
-15 5 -15 10 0 6 5 10 11 10 21 0 130 -64 173 -101 62 -55 139 -175 174 -271
37 -102 68 -261 53 -266 -7 -2 -11 -54 -11 -147 0 -79 -4 -146 -9 -149 -4 -3
-11 76 -14 177 -7 221 -31 337 -94 456 -18 35 -21 47 -11 53 10 7 9 8 -3 6
-10 -2 -33 18 -57 48 -50 63 -146 129 -220 150 -52 15 -59 15 -111 -1 -45 -14
-69 -31 -121 -84 -159 -162 -219 -397 -175 -694 14 -94 23 -130 46 -182 5 -11
16 -40 26 -65 71 -180 228 -350 322 -350 12 0 19 -4 16 -10 -9 -14 -58 -13
-73 2 -6 6 -14 9 -17 6 -10 -9 70 -58 96 -58 14 0 30 -5 37 -12 8 -8 15 -8 24
-1 7 6 32 13 56 17 48 7 56 12 121 77 54 55 71 75 71 87 0 5 6 15 14 21 7 6
19 39 25 74 7 34 14 71 17 82 5 20 5 20 -10 1 -20 -25 -21 -9 -1 64 8 30 15
71 16 90 0 32 1 33 10 12 5 -14 5 -39 -1 -65 -14 -62 -13 -75 5 -51 8 10 15
31 15 47 0 15 5 27 10 27 14 0 13 -17 -6 -97 -45 -195 -123 -311 -250 -373
l-59 -29 150 -1 c94 0 145 -4 140 -9 -6 -6 -39 -12 -75 -14 -36 -2 -16 -3 44
-3 78 1 111 5 114 14 2 8 -9 12 -35 13 l-38 1 45 8 c25 5 58 13 73 19 16 6 35
11 44 11 13 0 13 -3 3 -15 -7 -8 -25 -15 -41 -15 -31 0 -36 -9 -17 -28 8 -8
45 -12 100 -12 82 0 91 2 112 25 13 14 32 55 41 90 l18 65 48 0 49 0 -1 163
c-1 89 -4 149 -6 132 -3 -16 -8 -34 -13 -40 -5 -5 -11 -27 -15 -47 -4 -21 -13
-42 -21 -49 -18 -15 -18 -1 0 48 27 71 55 178 58 218 l3 40 -139 3 c-89 2
-145 7 -154 14 -17 15 -12 99 8 123 7 8 30 18 51 21 22 4 39 10 39 14 0 4 -9
33 -19 66 -27 82 -48 177 -56 257 -8 78 -18 106 -82 232 -44 86 -90 160 -144
234 l-24 33 -104 -7 c-160 -10 -320 -49 -399 -95 -39 -24 -52 -25 -52 -6 0 15
73 53 143 76 65 20 41 30 -75 30 -106 0 -155 -7 -203 -26 -20 -7 -20 -7 -1 14
11 12 17 21 15 21 -2 -1 -12 -3 -21 -6z m315 -100 c-13 -2 -35 -2 -50 0 -16 2
-5 4 22 4 28 0 40 -2 28 -4z m92 -304 c129 -68 186 -202 187 -434 0 -126 -17
-216 -52 -284 -83 -162 -284 -161 -386 1 -70 110 -104 344 -71 475 52 201 196
309 322 242z m362 -601 c-1 -40 -3 -8 -3 72 0 80 2 112 3 73 2 -40 2 -106 0
-145z m-95 -291 c-5 -7 -13 -27 -17 -44 -3 -18 -17 -41 -31 -52 -13 -10 -24
-23 -24 -27 0 -13 -63 -74 -76 -74 -6 0 -14 -7 -18 -15 -3 -8 -17 -15 -31 -15
-14 0 -25 -4 -25 -10 0 -5 -11 -10 -25 -10 -14 0 -25 5 -25 10 0 6 9 10 20 10
65 0 168 92 221 197 18 36 35 60 37 54 2 -6 -1 -17 -6 -24z m468 -34 c0 -16
-42 -92 -60 -108 -11 -10 -20 -22 -20 -28 0 -11 -68 -77 -79 -77 -5 0 -14 -7
-21 -15 -14 -17 -40 -20 -40 -6 0 5 9 12 19 16 46 14 181 175 181 215 0 6 5
10 10 10 6 0 10 -3 10 -7z"/>
<path d="M6755 1712 c-72 -35 -112 -99 -135 -219 -13 -64 -9 -272 5 -305 4
-11 3 -18 -4 -18 -6 0 -11 10 -11 23 0 13 -3 27 -7 31 -10 10 -13 268 -3 281
4 6 11 25 15 43 4 18 13 45 21 60 16 31 17 42 6 42 -8 0 -47 -76 -47 -91 0 -4
-3 -11 -7 -15 -5 -4 -8 -24 -8 -45 0 -21 -4 -41 -10 -44 -12 -8 -13 -132 -1
-139 4 -3 11 -34 14 -69 3 -35 11 -77 18 -93 27 -69 51 -114 60 -114 5 0 0 17
-11 37 -11 21 -20 49 -19 63 l1 25 7 -25 c39 -126 136 -200 223 -171 32 11 85
48 77 55 -2 2 -29 19 -59 38 -117 75 -153 143 -154 288 0 88 2 100 34 164 38
77 80 112 149 124 24 4 43 12 44 17 1 17 -78 64 -119 70 -27 4 -51 0 -79 -13z"/>
<path d="M6825 1578 c-28 -24 -65 -78 -65 -95 0 -12 17 1 25 19 6 12 19 26 30
32 11 6 31 19 44 29 13 9 40 17 59 17 44 0 39 6 -16 19 -40 9 -46 7 -77 -21z"/>
<path d="M6950 1573 c-61 -7 -65 -11 -36 -38 63 -58 92 -210 57 -293 -15 -37
-38 -38 -33 -1 2 13 6 58 9 99 8 127 -41 206 -114 183 -45 -14 -72 -81 -73
-176 0 -80 7 -102 49 -149 30 -34 51 -35 88 -4 22 19 30 21 40 11 9 -10 7 -17
-10 -33 -12 -10 -31 -24 -42 -30 -22 -12 -25 -10 52 -35 38 -13 44 -13 56 2
16 18 47 178 47 242 0 74 -34 231 -49 227 -3 0 -22 -3 -41 -5z"/>
<path d="M7037 1223 c-2 -5 -1 -19 4 -33 7 -23 7 -23 8 8 1 31 -3 40 -12 25z"/>
<path d="M6760 1204 c0 -4 13 -21 29 -39 16 -18 31 -39 33 -47 6 -16 13 -10
22 20 6 18 3 22 -13 22 -11 0 -28 11 -39 25 -19 24 -32 32 -32 19z"/>
<path d="M7015 1118 c-10 -34 -33 -45 -63 -32 -9 4 -24 8 -32 9 -8 1 -25 5
-37 9 -27 9 -32 -11 -5 -21 9 -4 28 -15 42 -24 14 -10 38 -19 54 -21 27 -3 31
1 40 34 6 20 14 40 19 44 9 10 9 34 -1 34 -4 0 -12 -15 -17 -32z"/>
<path d="M6685 1000 c10 -11 20 -20 23 -20 3 0 -3 9 -13 20 -10 11 -20 20 -23
20 -3 0 3 -9 13 -20z"/>
<path d="M6893 966 c-28 -13 -30 -26 -4 -26 10 0 22 7 25 16 8 21 6 22 -21 10z"/>
<path d="M7833 2128 c-27 -26 -34 -29 -47 -19 -16 14 -46 9 -46 -8 0 -5 15
-11 33 -14 42 -6 117 28 117 54 0 28 -21 23 -57 -13z"/>
<path d="M7906 2112 c-4 -7 -9 -147 -7 -189 1 -8 16 -13 42 -13 36 0 45 6 94
58 51 54 87 79 148 101 52 20 32 38 -50 45 -105 8 -221 8 -227 -2z"/>
<path d="M10074 2105 c-10 -26 3 -42 42 -50 30 -5 41 -3 51 11 7 10 13 23 13
30 0 25 -97 33 -106 9z"/>
<path d="M8340 2093 c-38 -7 -107 -31 -149 -52 -128 -66 -268 -242 -312 -391
-12 -41 -13 -42 -17 -17 -2 15 -7 25 -12 22 -5 -3 -7 -12 -4 -19 3 -8 1 -17
-5 -21 -6 -3 -11 -19 -11 -34 0 -15 -3 -31 -7 -35 -11 -11 -13 -45 -3 -51 6
-3 10 1 10 9 0 9 5 16 11 16 7 0 8 -7 4 -17 -3 -10 -10 -38 -15 -63 -5 -25
-12 -53 -15 -62 -5 -12 -2 -18 7 -18 24 0 56 -43 61 -80 2 -19 4 1 4 45 0 44
-2 70 -4 58 -6 -31 -21 -29 -29 3 -12 49 40 231 106 369 27 56 56 97 97 137
57 56 160 118 195 118 10 0 44 10 76 21 31 12 102 32 157 44 l100 23 -110 0
c-60 -1 -121 -3 -135 -5z m-483 -530 c-3 -10 -5 -4 -5 12 0 17 2 24 5 18 2 -7
2 -21 0 -30z"/>
<path d="M8550 2060 c-58 -10 -95 -22 -149 -50 -24 -12 -69 -28 -100 -36 -151
-40 -257 -125 -333 -271 -25 -49 -49 -104 -53 -123 -6 -33 -5 -32 21 15 109
202 245 292 444 296 78 2 92 5 176 45 50 24 100 44 110 44 36 0 47 15 40 54
l-7 36 -52 -1 c-29 -1 -72 -5 -97 -9z"/>
<path d="M9238 1980 l-57 -68 -10 -318 c-6 -176 -13 -377 -16 -449 -3 -71 -8
-214 -12 -316 l-6 -186 49 -18 c27 -9 58 -21 69 -26 69 -28 136 -42 157 -32
13 6 50 23 83 38 l59 26 -54 32 c-53 32 -55 35 -62 88 -4 30 -12 151 -18 269
-43 853 -44 867 -82 958 -17 39 -33 72 -37 71 -3 0 -32 -31 -63 -69z"/>
<path d="M9370 2033 c0 -5 12 -28 26 -53 23 -40 27 -60 34 -178 l7 -133 39
-42 c21 -23 73 -78 115 -122 42 -44 148 -157 237 -251 l162 -171 112 33 c86
25 133 33 196 34 45 0 82 -3 82 -7 0 -3 -7 -14 -16 -24 -14 -16 -11 -16 53
-12 37 3 83 12 102 19 18 8 63 14 98 14 54 0 64 -3 59 -15 -3 -8 -9 -22 -12
-30 -9 -23 61 -20 85 4 12 12 28 17 43 14 15 -3 43 4 67 16 33 17 51 20 91 15
44 -6 48 -9 40 -25 -17 -30 -11 -39 22 -39 19 0 41 9 55 22 26 24 87 37 185
37 67 1 91 -10 69 -32 -6 -6 -11 -17 -11 -24 0 -22 32 -15 61 13 20 19 40 27
76 29 26 2 81 7 121 11 61 5 72 4 72 -9 0 -9 -4 -19 -10 -22 -21 -13 -9 -25
24 -25 18 0 39 7 46 15 7 9 32 20 56 26 24 6 49 17 55 25 14 17 32 17 99 2 35
-8 49 -16 45 -25 -3 -7 -8 -20 -11 -28 -5 -12 2 -15 29 -15 26 0 41 7 56 26
12 15 33 28 47 30 14 1 39 8 55 15 23 9 39 9 74 -1 44 -12 55 -23 35 -35 -16
-10 -11 -25 8 -25 10 0 29 11 42 25 13 14 32 25 42 25 27 0 22 12 -20 53 -33
32 -44 37 -86 37 -43 0 -51 4 -84 42 -130 150 -260 268 -296 268 -12 0 -16 10
-16 48 0 26 -7 102 -15 169 -13 117 -28 167 -57 190 -14 12 -303 26 -858 43
-184 6 -479 15 -655 20 -176 6 -423 15 -550 20 -277 12 -325 12 -325 3z"/>
<path d="M6945 1970 c10 -11 20 -18 23 -15 7 6 -18 35 -31 35 -5 0 -2 -9 8
-20z"/>
<path d="M8663 1933 c-18 -9 -33 -19 -33 -22 0 -4 30 -17 66 -30 87 -31 164
-72 247 -133 38 -27 71 -47 74 -45 4 5 -34 79 -93 184 -23 39 -26 42 -51 32
-29 -11 -118 5 -129 22 -8 14 -45 10 -81 -8z"/>
<path d="M7060 1855 c7 -9 15 -13 17 -11 7 7 -7 26 -19 26 -6 0 -6 -6 2 -15z"/>
<path d="M8303 1842 c-81 -15 -110 -32 -55 -32 67 -1 183 -77 249 -165 105
-140 147 -298 147 -560 0 -193 -14 -271 -70 -391 -37 -80 -115 -161 -164 -170
-64 -13 -25 -24 86 -24 183 0 278 36 386 147 86 88 133 187 177 376 15 66 14
209 -4 292 -50 243 -172 429 -325 498 -102 47 -271 58 -427 29z"/>
<path d="M8124 1738 c-77 -52 -148 -158 -190 -283 -31 -95 -27 -408 6 -474 4
-9 21 -47 36 -86 81 -201 202 -324 320 -325 154 -1 257 131 300 383 24 142 9
362 -31 486 -62 187 -211 331 -343 331 -39 0 -60 -7 -98 -32z m281 -224 c39
-30 74 -81 101 -149 16 -42 19 -75 19 -215 -1 -156 -2 -168 -26 -220 -33 -70
-93 -126 -147 -135 -159 -27 -282 153 -282 415 0 257 181 422 335 304z"/>
<path d="M8255 1498 c-31 -17 -75 -61 -90 -89 -43 -81 -56 -249 -29 -366 39
-170 127 -243 231 -192 40 19 58 49 31 49 -23 1 -107 69 -133 109 -53 79 -53
248 -1 330 38 59 70 83 120 88 25 3 46 9 46 14 0 4 -20 22 -44 39 -47 32 -95
38 -131 18z"/>
<path d="M8380 1365 c0 -3 13 -23 29 -46 42 -57 58 -134 42 -202 -14 -63 -32
-92 -74 -117 -21 -13 -26 -21 -16 -24 65 -21 90 -27 97 -22 33 20 50 302 24
379 -13 35 -16 37 -58 37 -24 0 -44 -2 -44 -5z"/>
<path d="M8302 1315 c-78 -66 -55 -283 31 -293 91 -11 127 209 47 290 -35 34
-41 35 -78 3z"/>
<path d="M9446 1498 c16 -229 25 -375 34 -528 16 -260 13 -248 93 -289 70 -36
83 -57 42 -67 -13 -3 -29 -12 -35 -19 -9 -11 14 -13 137 -9 296 8 495 14 858
23 389 11 971 29 1140 35 186 8 337 67 466 183 155 138 300 283 294 293 -12
19 -36 10 -110 -40 l-74 -50 -86 0 c-47 0 -85 4 -85 9 0 5 18 24 40 41 38 30
44 50 16 50 -7 0 -46 -25 -87 -55 l-74 -55 -85 6 c-47 3 -89 10 -93 14 -5 4 5
16 22 26 33 20 41 44 14 44 -9 0 -51 -20 -93 -44 l-77 -45 -82 8 c-45 5 -85
12 -89 16 -4 4 3 14 16 22 26 18 29 43 5 43 -9 0 -45 -16 -79 -35 -63 -36 -64
-36 -154 -29 -49 4 -90 10 -90 14 0 4 7 13 15 20 22 18 18 30 -11 30 -22 0
-124 -49 -148 -71 -11 -10 -179 -12 -189 -3 -4 4 5 21 20 38 42 50 3 46 -78
-8 l-69 -46 -105 0 c-117 0 -128 8 -70 50 19 14 35 28 35 33 0 12 -54 7 -80
-8 -14 -8 -42 -14 -62 -15 -27 0 -47 -8 -71 -30 -33 -28 -39 -30 -121 -30 -47
0 -86 3 -86 7 0 4 17 24 37 45 l37 38 -31 0 c-18 0 -63 -19 -110 -45 -77 -43
-82 -45 -140 -39 l-61 7 -243 263 c-134 145 -246 264 -250 264 -4 0 -5 -28 -3
-62z"/>
<path d="M7190 1529 c0 -5 5 -7 10 -4 6 3 10 8 10 11 0 2 -4 4 -10 4 -5 0 -10
-5 -10 -11z"/>
<path d="M7200 1445 c0 -14 5 -25 10 -25 6 0 10 11 10 25 0 14 -4 25 -10 25
-5 0 -10 -11 -10 -25z"/>
<path d="M7800 1445 c0 -14 5 -25 10 -25 6 0 10 11 10 25 0 14 -4 25 -10 25
-5 0 -10 -11 -10 -25z"/>
<path d="M7780 1366 c0 -8 5 -18 10 -21 6 -3 10 3 10 14 0 12 -4 21 -10 21 -5
0 -10 -6 -10 -14z"/>
<path d="M6155 1068 c-15 -23 -15 -23 42 -29 112 -13 203 -10 203 5 0 43 -8
46 -121 46 -101 0 -109 -2 -124 -22z"/>
<path d="M6445 983 c4 -10 12 -36 18 -58 17 -64 84 -189 130 -241 47 -53 121
-104 151 -104 17 0 14 5 -14 21 -47 29 -84 63 -135 130 -45 58 -118 194 -130
242 -4 15 -12 27 -17 27 -6 0 -7 -8 -3 -17z"/>
<path d="M7970 834 c0 -37 79 -183 125 -233 47 -50 106 -86 128 -77 7 2 5 5
-5 5 -9 1 -18 4 -20 9 -1 4 -20 19 -40 35 -46 34 -117 132 -158 218 -16 35
-30 55 -30 43z"/>
<path d="M1160 678 c0 -17 48 -97 87 -146 57 -70 65 -72 301 -72 l209 0 47 41
c39 35 126 160 126 182 0 4 -173 7 -385 7 -286 0 -385 -3 -385 -12z"/>
<path d="M10335 568 c-225 -4 -447 -9 -493 -10 l-82 -3 54 -42 54 -43 113 0
112 0 43 40 44 40 348 0 349 0 23 -25 c21 -23 31 -25 106 -25 81 0 82 0 108
34 14 19 26 37 26 41 0 6 -191 5 -805 -7z"/>
<path d="M6780 535 c10 -12 36 -15 129 -13 97 2 103 3 36 5 -44 2 -84 8 -89
13 -6 6 -28 10 -49 10 -34 0 -38 -2 -27 -15z"/>
</g>
</svg>
